<?xml version="1.0" encoding="UTF-8" standalone="no"?>
<!-- Created with Inkscape (http://www.inkscape.org/) -->

<svg
   width="140mm"
   height="100mm"
   viewBox="0 0 210 297"
   version="1.1"
   id="svg5"
   sodipodi:docname="tree-org.svg"
   inkscape:version="1.2 (dc2aedaf03, 2022-05-15)"
   xmlns:inkscape="http://www.inkscape.org/namespaces/inkscape"
   xmlns:sodipodi="http://sodipodi.sourceforge.net/DTD/sodipodi-0.dtd"
   xmlns="http://www.w3.org/2000/svg"
   xmlns:svg="http://www.w3.org/2000/svg">
  <sodipodi:namedview
     id="namedview7"
     pagecolor="#505050"
     bordercolor="#ffffff"
     borderopacity="1"
     inkscape:showpageshadow="0"
     inkscape:pageopacity="0"
     inkscape:pagecheckerboard="1"
     inkscape:deskcolor="#505050"
     inkscape:document-units="mm"
     showgrid="false"
     inkscape:zoom="0.70710678"
     inkscape:cx="478.00418"
     inkscape:cy="485.07525"
     inkscape:window-width="1920"
     inkscape:window-height="1017"
     inkscape:window-x="1358"
     inkscape:window-y="-8"
     inkscape:window-maximized="1"
     inkscape:current-layer="g1507"
     inkscape:lockguides="false" />
  <defs
     id="defs2" />
  <g
     inkscape:label="图层 1"
     inkscape:groupmode="layer"
     id="layer1">
    <text
       xml:space="preserve"
       style="font-size:7.05556px;fill:#000000;stroke-width:0.264583"
       x="94.720833"
       y="76.993752"
       id="text479"><tspan
         sodipodi:role="line"
         id="tspan477"
         style="stroke-width:0.264583" /></text>
    <g
       id="g1507"
       transform="translate(-4.9042109e-7,11.299062)">
      <text
         xml:space="preserve"
         style="font-size:20.7313px;fill:#000000;stroke-width:0.279209"
         x="33.255371"
         y="249.92014"
         id="text373"
         transform="scale(0.99496369,1.0050618)"><tspan
           sodipodi:role="line"
           id="tspan371"
           style="font-size:20.7313px;fill:#000000;stroke-width:0.279209"
           x="33.255371"
           y="249.92014" /></text>
      <g
         id="g535"
         transform="matrix(1.6689297,0,0,1.4000336,-70.237605,-70.704039)">
        <g
           id="g1236"
           transform="matrix(1.2139847,0,0,1.5164689,-18.118518,-7.1683087)">
          <g
             id="g1353"
             transform="translate(-10.45676)">
            <ellipse
               style="fill:#000000;stroke-width:0.340288"
               id="path600"
               cx="111.87362"
               cy="35.420597"
               rx="2.0910988"
               ry="2.7134194" />
            <g
               id="g1602"
               transform="matrix(1.1290522,0,0,1.4650634,0.44792048,-24.189114)">
              <circle
                 style="fill:#000000;stroke-width:0.264583"
                 id="path600-6"
                 cx="60.854168"
                 cy="63.632294"
                 r="1.8520833" />
              <circle
                 style="fill:#000000;stroke-width:0.264583"
                 id="path600-4"
                 cx="136.52501"
                 cy="63.632294"
                 r="1.8520833" />
            </g>
            <g
               id="g1608"
               transform="matrix(1.1290522,0,0,1.4650634,-2.9874551,-32.825324)">
              <circle
                 style="fill:#000000;stroke-width:0.264583"
                 id="path600-1"
                 cx="33.337502"
                 cy="92.471878"
                 r="1.8520833" />
              <circle
                 style="fill:#000000;stroke-width:0.264583"
                 id="path600-0"
                 cx="78.934029"
                 cy="92.471878"
                 r="1.8520833" />
              <circle
                 style="fill:#000000;stroke-width:0.264583"
                 id="path600-9"
                 cx="124.53056"
                 cy="92.471878"
                 r="1.8520833" />
              <circle
                 style="fill:#000000;stroke-width:0.264583"
                 id="path600-7"
                 cx="170.12709"
                 cy="92.471878"
                 r="1.8520833" />
            </g>
            <g
               id="g1618"
               transform="matrix(1.1290522,0,0,1.4650634,-4.7798174,-37.58522)">
              <circle
                 style="fill:#000000;stroke-width:0.264583"
                 id="path600-64"
                 cx="22.489584"
                 cy="118.66563"
                 r="1.8520833" />
              <circle
                 style="fill:#000000;stroke-width:0.264583"
                 id="path600-5"
                 cx="45.583927"
                 cy="118.66563"
                 r="1.8520833" />
              <circle
                 style="fill:#000000;stroke-width:0.264583"
                 id="path600-18"
                 cx="68.678276"
                 cy="118.66563"
                 r="1.8520833" />
              <circle
                 style="fill:#000000;stroke-width:0.264583"
                 id="path600-92"
                 cx="91.772614"
                 cy="118.66563"
                 r="1.8520833" />
              <circle
                 style="fill:#000000;stroke-width:0.264583"
                 id="path600-99"
                 cx="114.86696"
                 cy="118.66563"
                 r="1.8520833" />
              <circle
                 style="fill:#000000;stroke-width:0.264583"
                 id="path600-16"
                 cx="137.9613"
                 cy="118.66563"
                 r="1.8520833" />
              <circle
                 style="fill:#000000;stroke-width:0.264583"
                 id="path600-70"
                 cx="161.05565"
                 cy="118.66563"
                 r="1.8520833" />
              <circle
                 style="fill:#000000;stroke-width:0.264583"
                 id="path600-56"
                 cx="184.14999"
                 cy="118.66563"
                 r="1.8520833" />
            </g>
            <g
               id="g1636"
               transform="matrix(1.1290522,0,0,1.4650634,-1.1950771,-42.345113)">
              <circle
                 style="fill:#000000;stroke-width:0.264583"
                 id="path600-06"
                 cx="11.1125"
                 cy="144.85938"
                 r="1.8520833" />
              <circle
                 style="fill:#000000;stroke-width:0.264583"
                 id="path600-569"
                 cx="22.983473"
                 cy="144.85938"
                 r="1.8520833" />
              <circle
                 style="fill:#000000;stroke-width:0.264583"
                 id="path600-57"
                 cx="34.854443"
                 cy="144.85938"
                 r="1.8520833" />
              <circle
                 style="fill:#000000;stroke-width:0.264583"
                 id="path600-8"
                 cx="46.725414"
                 cy="144.85938"
                 r="1.8520833" />
              <circle
                 style="fill:#000000;stroke-width:0.264583"
                 id="path600-41"
                 cx="58.596386"
                 cy="144.85938"
                 r="1.8520833" />
              <circle
                 style="fill:#000000;stroke-width:0.264583"
                 id="path600-3"
                 cx="70.467361"
                 cy="144.85938"
                 r="1.8520833" />
              <circle
                 style="fill:#000000;stroke-width:0.264583"
                 id="path600-35"
                 cx="94.209305"
                 cy="144.85938"
                 r="1.8520833" />
              <circle
                 style="fill:#000000;stroke-width:0.264583"
                 id="path600-78"
                 cx="82.338333"
                 cy="144.85938"
                 r="1.8520833" />
              <circle
                 style="fill:#000000;stroke-width:0.264583"
                 id="path600-359"
                 cx="106.08028"
                 cy="144.85938"
                 r="1.8520833" />
              <circle
                 style="fill:#000000;stroke-width:0.264583"
                 id="path600-88"
                 cx="117.95125"
                 cy="144.85938"
                 r="1.8520833" />
              <circle
                 style="fill:#000000;stroke-width:0.264583"
                 id="path600-352"
                 cx="129.82222"
                 cy="144.85938"
                 r="1.8520833" />
              <circle
                 style="fill:#000000;stroke-width:0.264583"
                 id="path600-31"
                 cx="141.69319"
                 cy="144.85938"
                 r="1.8520833" />
              <circle
                 style="fill:#000000;stroke-width:0.264583"
                 id="path600-77"
                 cx="153.56416"
                 cy="144.85938"
                 r="1.8520833" />
              <circle
                 style="fill:#000000;stroke-width:0.264583"
                 id="path600-76"
                 cx="165.43513"
                 cy="144.85938"
                 r="1.8520833" />
              <circle
                 style="fill:#000000;stroke-width:0.264583"
                 id="path600-17"
                 cx="177.30611"
                 cy="144.85938"
                 r="1.8520833" />
              <circle
                 style="fill:#000000;stroke-width:0.264583"
                 id="path600-97"
                 cx="189.17708"
                 cy="144.85938"
                 r="1.8520833" />
            </g>
            <path
               style="fill:#000000;stroke-width:0.340288"
               id="path1680"
               d="m 109.79467,35.134053 c -1.28452,1.310889 -2.69134,2.406249 -4.0749,3.529132 -1.98093,1.57733 -3.97282,3.133147 -5.987325,4.637431 -1.53844,1.077442 -3.059227,2.19289 -4.558338,3.359496 -1.314611,0.988654 -2.582493,2.075465 -3.868712,3.123844 -1.08856,0.884998 -2.247504,1.617148 -3.412659,2.314834 -1.511252,0.901449 -3.040864,1.749152 -4.556501,2.638262 -1.971661,1.11596 -3.938886,2.245153 -5.90974,3.363547 -1.22764,0.698066 -2.414529,1.503242 -3.569115,2.384688 -0.842743,0.636348 -1.568069,1.485563 -2.355273,2.223838 -0.387535,0.303 -0.633116,0.781012 -0.910978,1.222787 -0.234803,0.360885 -0.357715,0.796009 -0.492436,1.226841 -0.08947,0.271737 -0.200808,0.526373 -0.312275,0.78321 -0.518238,1.19416 0.783232,2.145171 1.301473,0.951014 v 0 c 0.14295,-0.329413 0.282319,-0.659931 0.395871,-1.008787 0.08256,-0.266504 0.137911,-0.533785 0.283168,-0.757028 0.184727,-0.311634 0.343131,-0.640146 0.611607,-0.848615 0.747933,-0.704861 1.440612,-1.507786 2.237142,-2.123452 1.102078,-0.844152 2.237069,-1.61048 3.409297,-2.278726 1.976468,-1.121623 3.949357,-2.253886 5.926568,-3.373257 1.519416,-0.89137 3.052939,-1.740941 4.567856,-2.644999 1.222358,-0.734205 2.438654,-1.502083 3.580489,-2.432933 1.277506,-1.041303 2.536715,-2.120949 3.842425,-3.102908 1.491437,-1.160638 3.004846,-2.269357 4.535176,-3.341831 2.03025,-1.516337 4.03798,-3.084003 6.03434,-4.674048 1.44079,-1.169402 2.90513,-2.311721 4.23905,-3.683405 0.81137,-0.877365 -0.14484,-2.366296 -0.95621,-1.488935 z" />
            <path
               style="fill:#000000;stroke-width:0.340288"
               id="path1684"
               d="m 67.648182,70.246562 c -0.96226,0.802498 -1.939105,1.576056 -2.902463,2.377015 -1.310814,1.167087 -2.574629,2.419439 -3.881814,3.594008 -1.516637,1.385848 -3.12279,2.595413 -4.723105,3.808746 -1.793806,1.263616 -3.465441,2.789616 -5.11783,4.337606 -1.519042,1.420177 -3.014064,2.882333 -4.516291,4.331885 -1.218182,1.17295 -2.491999,2.242936 -3.721921,3.393997 -1.253153,1.246137 -2.58181,2.348692 -3.917625,3.436975 -1.094501,0.860173 -2.103574,1.893161 -3.076843,2.967666 -0.571046,0.591666 -1.063989,1.277968 -1.55685,1.97199 -0.714309,1.00951 0.38591,2.32033 1.10022,1.31083 v 0 c 0.450139,-0.63804 0.900158,-1.26743 1.425458,-1.807688 0.91688,-1.015808 1.869693,-1.989952 2.902235,-2.801349 1.362991,-1.110432 2.718154,-2.236695 3.997521,-3.506828 1.235093,-1.157495 2.516398,-2.229876 3.739159,-3.410384 1.496512,-1.444361 2.986128,-2.900782 4.499414,-4.315837 1.613068,-1.512077 3.244794,-3.003047 4.996916,-4.235451 1.633349,-1.23854 3.272059,-2.474317 4.820013,-3.888865 1.292293,-1.161754 2.543544,-2.39698 3.837181,-3.55542 1.021185,-0.849123 2.06571,-1.653493 3.068676,-2.537339 0.8019,-0.891897 -0.17015,-2.363453 -0.972051,-1.471557 z" />
            <path
               style="fill:#000000;stroke-width:0.340288"
               id="path1686"
               d="m 33.588728,103.66384 c -0.404804,1.08597 -0.839603,2.15259 -1.272538,3.21997 -0.447955,1.16541 -0.915793,2.31564 -1.419169,3.4423 -0.543521,1.17516 -1.063548,2.3684 -1.586523,3.55912 -0.59389,1.3845 -1.207035,2.75232 -1.832944,4.1129 -0.737583,1.62658 -1.464364,3.26294 -2.171124,4.91264 -0.11671,0.26708 -0.231326,0.5357 -0.350129,0.80121 -0.227554,0.50856 -0.501624,1.07581 -0.71965,1.59028 -0.382922,0.90354 -0.70731,1.84241 -1.03284,2.78202 -0.568559,1.69533 -1.162514,3.37591 -1.744616,5.06341 -0.305733,0.84683 -0.646217,1.67046 -1.004614,2.48137 -0.524992,1.18918 0.771055,2.15259 1.296046,0.96339 v 0 c 0.382373,-0.86701 0.746481,-1.74714 1.07187,-2.65293 0.581821,-1.68669 1.175509,-3.36645 1.743774,-5.06097 0.303911,-0.87839 0.604684,-1.75914 0.962388,-2.6038 0.202013,-0.47704 0.517123,-1.13772 0.726956,-1.6068 0.120915,-0.27032 0.237589,-0.54379 0.356384,-0.81567 0.698967,-1.63247 1.4184,-3.2513 2.148072,-4.86075 0.631042,-1.37171 1.248902,-2.75116 1.848124,-4.14664 0.521201,-1.18673 1.039339,-2.37604 1.581197,-3.54711 0.513095,-1.14969 0.99199,-2.32219 1.448587,-3.51138 0.456894,-1.12671 0.918668,-2.25117 1.337562,-3.40275 0.392249,-1.27246 -0.994561,-1.99228 -1.386813,-0.71981 z" />
            <path
               style="fill:#000000;stroke-width:0.340288"
               id="path1688"
               d="m 19.702475,137.07855 c -0.1377,0.87383 -0.227215,1.75835 -0.382962,2.62734 -0.158278,0.96404 -0.485658,1.85115 -0.78382,2.75029 -0.207733,0.56704 -0.347376,1.16972 -0.527815,1.75031 -0.09213,0.29647 -0.198449,0.58527 -0.291304,0.88135 -0.446224,1.18709 -0.685922,2.47423 -1.013061,3.7192 -0.406777,1.57956 -0.921108,3.10595 -1.422681,4.63709 -0.4388,1.39715 -0.981554,2.73203 -1.491563,4.08588 -0.430527,1.25335 -0.954993,2.4447 -1.427619,3.67025 -0.330542,0.80829 -0.61996,1.64886 -1.018422,2.40667 -0.180342,0.38258 -0.410685,0.71619 -0.638079,1.05179 -0.269067,0.41526 -0.486006,0.87312 -0.648656,1.37147 -0.095254,0.41076 -0.1711472,0.83005 -0.2420662,1.24928 -0.2248176,1.33908 1.2345932,1.75164 1.4594112,0.41256 v 0 c 0.05266,-0.31678 0.116854,-0.63008 0.170782,-0.94631 0.07295,-0.30339 0.244037,-0.55241 0.382897,-0.80819 0.269175,-0.39824 0.539266,-0.79827 0.755391,-1.24948 0.427053,-0.8333 0.763897,-1.73269 1.115079,-2.62201 0.472716,-1.23164 1.002319,-2.42612 1.433344,-3.68529 0.520944,-1.38466 1.075969,-2.74955 1.524126,-4.17848 0.515879,-1.57505 1.043823,-3.14574 1.462015,-4.77064 0.31714,-1.21072 0.549721,-2.46153 0.98328,-3.61549 0.269245,-0.86519 0.536404,-1.72936 0.807011,-2.59405 0.333375,-1.00584 0.691006,-2.00258 0.867214,-3.0808 0.151336,-0.85814 0.250588,-1.72795 0.376544,-2.59268 0.256157,-1.32956 -1.192889,-1.79962 -1.449046,-0.47006 z" />
            <ellipse
               id="path1690"
               style="fill:#000000;stroke:#000000;stroke-width:0.340288"
               cx="31.216951"
               cy="132.86432"
               rx="0.0065799593"
               ry="0.0085381856" />
            <path
               style="fill:#000000;stroke-width:0.340288"
               id="path1694"
               d="m 34.190708,102.84361 c 0.47118,1.52557 1.045525,2.98825 1.621282,4.45014 0.636286,1.53852 1.179252,3.12704 1.683101,4.74443 0.540508,1.83736 1.057433,3.68588 1.587097,5.52852 0.395321,1.46734 0.874064,2.8915 1.343043,4.32045 0.554581,1.58184 1.098076,3.17012 1.639595,4.75963 0.372341,1.2348 0.829656,2.42071 1.26429,3.6192 0.347861,0.95835 0.77299,1.86395 1.164094,2.79261 0.223282,0.46305 0.395759,0.9594 0.583964,1.44599 0.476857,1.22284 1.809591,0.34776 1.332734,-0.87508 v 0 c -0.198359,-0.50287 -0.373682,-1.02112 -0.606275,-1.50099 -0.377159,-0.89401 -0.785828,-1.76664 -1.123126,-2.68801 -0.429864,-1.18449 -0.88179,-2.35671 -1.249572,-3.57736 -0.538792,-1.5815 -1.079249,-3.16195 -1.631538,-4.73554 -0.460233,-1.40172 -0.930375,-2.79856 -1.31775,-4.23825 -0.534413,-1.8591 -1.055784,-3.72422 -1.601815,-5.57768 -0.520475,-1.67001 -1.082132,-3.31049 -1.737819,-4.89991 -0.563492,-1.43073 -1.126078,-2.86175 -1.586401,-4.35531 -0.428947,-1.25236 -1.793855,-0.4652 -1.364904,0.78716 z" />
            <path
               style="fill:#000000;stroke-width:0.340288"
               id="path1696"
               d="m 20.825927,136.78136 c 0.31539,1.25905 0.571504,2.54087 0.838046,3.81828 0.314135,1.47685 0.580116,2.96786 0.791124,4.47506 0.173832,1.35672 0.294636,2.72276 0.396751,4.09128 0.112103,1.13698 0.125742,2.28821 0.253944,3.4227 0.07528,0.66619 0.206282,1.47206 0.307421,2.12957 0.265604,1.78418 0.550935,3.56289 0.693404,5.37209 0.08619,1.33116 0.09265,2.6678 0.09674,4.0027 0.001,0.76711 -0.0024,1.5342 -0.0046,2.30131 -0.0014,0.48984 -0.0017,0.97969 -0.0019,1.46955 -5.07e-4,1.37048 1.493147,1.37138 1.493643,7.7e-4 v 0 c 1.76e-4,-0.48773 4.77e-4,-0.97547 0.0018,-1.46319 0.0023,-0.7721 0.0056,-1.54422 0.0046,-2.31632 -0.0043,-1.39867 -0.01208,-2.79915 -0.104595,-4.19366 -0.149668,-1.86967 -0.436737,-3.70961 -0.714494,-5.55319 -0.08089,-0.52456 -0.225856,-1.4264 -0.288239,-1.97118 -0.128565,-1.12275 -0.138407,-2.26325 -0.251151,-3.3885 -0.106594,-1.42204 -0.232059,-2.84162 -0.413923,-4.25122 -0.219419,-1.56056 -0.493237,-3.10516 -0.818879,-4.63445 -0.268353,-1.28603 -0.526193,-2.57659 -0.843603,-3.84418 -0.29015,-1.31775 -1.726323,-0.7853 -1.436172,0.53245 z" />
            <path
               style="fill:#000000;stroke-width:0.340288"
               id="path1698"
               d="m 45.548818,135.97411 c -0.573036,1.81174 -1.186068,3.60113 -1.813709,5.38201 -0.725002,1.97125 -1.248287,4.0486 -1.834506,6.09174 -0.488699,1.66878 -0.995786,3.32903 -1.462314,5.00862 -0.466488,1.54074 -0.851263,3.11898 -1.268804,4.68229 -0.309241,1.19402 -0.608343,2.39256 -0.825115,3.62102 -0.172518,1.01053 -0.337819,2.02306 -0.456131,3.04692 -0.09369,0.5782 -0.178651,1.1564 -0.220593,1.74502 -0.01405,0.37581 -0.09165,0.74018 -0.131607,1.1126 -0.06636,0.39068 -0.114196,0.78429 -0.188759,1.17239 -0.0093,0.04 -0.01858,0.08 -0.02786,0.11999 -0.297934,1.31483 1.135048,1.86157 1.432982,0.54673 v 0 c 0.01476,-0.0662 0.02951,-0.13229 0.04429,-0.1985 0.08737,-0.45609 0.147043,-0.91839 0.219308,-1.37882 0.0408,-0.40128 0.130523,-0.79328 0.139219,-1.19975 0.03731,-0.55157 0.129263,-1.09023 0.210272,-1.63327 0.111935,-0.97643 0.272016,-1.94128 0.435609,-2.90503 0.199903,-1.15996 0.492502,-2.28698 0.779687,-3.41461 0.415498,-1.55591 0.798399,-3.12663 1.26274,-4.66001 0.464338,-1.67337 0.970491,-3.3268 1.456886,-4.98941 0.573412,-1.9993 1.0844,-4.03259 1.79306,-5.96185 0.629738,-1.78721 1.245564,-3.58258 1.820252,-5.40086 0.428949,-1.25236 -0.935959,-2.03953 -1.364906,-0.78716 z" />
            <path
               style="fill:#000000;stroke-width:0.340288"
               id="path1700"
               d="m 46.302736,137.11977 c -0.02234,2.11339 0.06624,4.22469 0.177222,6.33224 0.08787,1.42072 0.153919,2.84779 0.292965,4.26246 0.06445,0.65573 0.14929,1.30782 0.22298,1.96192 0.179551,1.85155 0.327457,3.70847 0.422217,5.57066 0.09741,1.59743 0.200894,3.19677 0.42817,4.77291 0.189298,1.22371 0.320458,2.45959 0.505903,3.68428 0.282624,1.44744 0.74539,2.81751 1.161779,4.20465 0.196395,0.57262 0.374641,1.15535 0.579305,1.72299 0.450339,1.23966 1.801395,0.41325 1.351057,-0.82642 v 0 c -0.192852,-0.52565 -0.352178,-1.07091 -0.538719,-1.60051 -0.384935,-1.2804 -0.81062,-2.54499 -1.087876,-3.87485 -0.185137,-1.21942 -0.31391,-2.45063 -0.503623,-3.66893 -0.219281,-1.49907 -0.309524,-3.02271 -0.405613,-4.54209 -0.09778,-1.91313 -0.248988,-3.82101 -0.434668,-5.72306 -0.07086,-0.62895 -0.153466,-1.25577 -0.215626,-1.88626 -0.137089,-1.39058 -0.201575,-2.79354 -0.288097,-4.1901 -0.109032,-2.06348 -0.195929,-4.13066 -0.173734,-6.19989 0,-1.37049 -1.493642,-1.37049 -1.493642,0 z" />
            <path
               style="fill:#000000;stroke-width:0.340288"
               id="path1704"
               d="m 68.808515,70.012267 c 0.962718,2.711892 2.037752,5.350525 3.120851,7.983589 1.615626,3.888822 3.307653,7.723032 5.076985,11.4973 1.147828,2.458123 2.398004,4.830946 3.623116,7.224213 0.555165,1.187148 1.254617,2.2304 1.936326,3.292671 0.511711,0.75004 1.046676,1.47578 1.613956,2.15547 0.777306,0.92783 1.788519,-0.4986 1.011213,-1.42643 v 0 C 84.670189,100.12028 84.184666,99.451244 83.71338,98.769473 83.0658,97.761221 82.398685,96.774312 81.873634,95.644971 80.659459,93.27314 79.420202,90.921781 78.282417,88.485839 76.527442,84.742754 74.849601,80.939865 73.247039,77.083181 72.194592,74.524823 71.152926,71.960149 70.207057,69.331733 69.836212,68.04851 68.437671,68.729039 68.808515,70.012267 Z" />
            <path
               style="fill:#000000;stroke-width:0.340288"
               id="path1706"
               d="m 84.64978,102.3887 c -0.652103,2.39072 -1.533311,4.65879 -2.43515,6.90324 -1.614457,3.66685 -3.128455,7.40434 -4.614894,11.16059 -1.235875,3.20141 -2.372306,6.46579 -3.436947,9.76862 -0.437907,1.28428 -0.883816,2.56167 -1.280435,3.86832 -0.07008,0.19649 -0.143556,0.41827 -0.265273,0.57292 -0.673871,1.05529 0.476241,2.29191 1.150114,1.23662 v 0 c 0.204817,-0.33673 0.387244,-0.69501 0.50494,-1.09944 0.392594,-1.29409 0.836352,-2.55796 1.268646,-3.83064 1.049331,-3.25632 2.169855,-6.47452 3.387666,-9.63109 1.48503,-3.75282 2.998433,-7.48624 4.610753,-11.1502 0.927196,-2.3098 1.832735,-4.6439 2.504665,-7.10318 0.37914,-1.27913 -1.014943,-1.97489 -1.394085,-0.69576 z" />
            <path
               style="fill:#000000;stroke-width:0.340288"
               id="path1708"
               d="m 71.538286,137.99325 c -0.466324,2.10013 -0.899348,4.21235 -1.346022,6.31961 -0.565514,2.68084 -1.081308,5.37855 -1.621516,8.06803 -0.319816,1.56548 -0.717094,3.1012 -1.081008,4.6497 -0.233011,1.00757 -0.49347,2.00293 -0.67564,3.02903 -0.145484,0.91741 -0.329435,1.82269 -0.530629,2.72207 -0.23658,0.92374 -0.420618,1.87026 -0.663499,2.79098 -0.181553,0.63792 -0.34073,1.27723 -0.428998,1.94853 -0.01416,0.18019 -0.07156,0.33363 -0.121502,0.49906 -0.380756,1.27833 1.012447,1.97706 1.393203,0.69872 v 0 c 0.08442,-0.28605 0.16961,-0.57375 0.201664,-0.87948 0.07043,-0.56919 0.221631,-1.10272 0.37019,-1.64455 0.246262,-0.94985 0.44371,-1.92063 0.68349,-2.87348 0.208841,-0.93543 0.400165,-1.87713 0.55234,-2.83093 0.170412,-0.98197 0.429951,-1.92993 0.648076,-2.89464 0.369832,-1.57385 0.773641,-3.13471 1.097671,-4.72618 0.538519,-2.68108 1.052696,-5.37035 1.616319,-8.04286 0.445362,-2.10111 0.877096,-4.20715 1.342034,-6.30115 0.290152,-1.31775 -1.146021,-1.85022 -1.436173,-0.53246 z" />
            <path
               style="fill:#000000;stroke-width:0.340288"
               id="path1710"
               d="m 72.142743,137.55377 c 0.09872,1.6586 0.351782,3.29235 0.583135,4.92594 0.293907,1.70598 0.440734,3.43935 0.573839,5.17541 0.0769,1.52821 0.22165,3.04749 0.33773,4.57091 0.09538,1.51402 0.288952,3.01923 0.526133,4.5063 0.202218,1.20028 0.287622,2.42386 0.388924,3.64307 0.05906,0.94945 0.197471,1.88718 0.358653,2.81532 0.122134,0.72539 0.287615,1.43496 0.483163,2.1322 0.175079,0.75877 0.474428,1.44867 0.729527,2.16322 0.148579,0.43283 0.318755,0.84976 0.492863,1.26576 0.504556,1.20399 1.816735,0.27808 1.312182,-0.9259 v 0 c -0.159466,-0.3801 -0.315964,-0.76024 -0.450595,-1.15686 -0.23863,-0.66416 -0.51865,-1.30477 -0.680972,-2.0111 -0.175097,-0.61959 -0.321037,-1.25088 -0.429523,-1.89602 -0.150563,-0.85472 -0.276136,-1.71958 -0.330263,-2.59438 -0.106503,-1.28175 -0.198774,-2.56764 -0.411517,-3.8294 -0.228024,-1.41954 -0.411512,-2.85753 -0.502198,-4.30315 -0.11639,-1.52371 -0.26082,-3.04332 -0.337804,-4.57186 -0.137195,-1.78911 -0.290048,-3.5754 -0.591101,-5.33383 -0.215093,-1.51879 -0.446715,-3.0364 -0.558535,-4.57563 0,-1.37049 -1.493641,-1.37049 -1.493641,0 z" />
            <path
               style="fill:#000000;stroke-width:0.340288"
               id="path1712"
               d="m 86.351862,103.04123 c 0.244866,2.25889 0.94144,4.37765 1.625995,6.46023 0.94534,2.74773 2.128459,5.33993 3.238642,7.97732 0.829129,1.90212 1.568655,3.8643 2.29203,5.83629 0.585809,1.52328 1.104443,3.08248 1.610115,4.65214 0.282403,0.93235 0.60158,1.84337 0.871012,2.78256 0.264814,0.93371 0.522846,1.87208 0.750191,2.82247 0.121776,0.60142 0.263603,1.19561 0.449746,1.76882 0.416034,1.25967 1.788915,0.49621 1.372882,-0.76346 v 0 c -0.172558,-0.50819 -0.280661,-1.04783 -0.396404,-1.58107 -0.236386,-0.98405 -0.501891,-1.95668 -0.776801,-2.92355 -0.276772,-0.96277 -0.601932,-1.89795 -0.892568,-2.85334 -0.515034,-1.59838 -1.043735,-3.18599 -1.639526,-4.73758 -0.735313,-2.00446 -1.487515,-3.99868 -2.329857,-5.93243 -1.087273,-2.58256 -2.24612,-5.12069 -3.175704,-7.80897 -0.61985,-1.88341 -1.254814,-3.79354 -1.509421,-5.82836 -0.07025,-1.36744 -1.560586,-1.23852 -1.490332,0.12893 z" />
            <path
               style="fill:#000000;stroke-width:0.340288"
               id="path1714"
               d="m 97.838032,135.12179 c -0.577951,1.52698 -1.165573,3.04729 -1.726324,4.58513 -0.736656,2.23956 -1.598237,4.40188 -2.324295,6.64734 -0.721809,2.41369 -1.039393,4.9839 -1.453739,7.50568 -0.247942,1.47366 -0.418981,2.96548 -0.558783,4.46195 -0.0954,1.0866 -0.156466,2.17693 -0.279612,3.25917 -0.148481,1.06057 -0.189245,2.13426 -0.214306,3.20922 0.0024,0.85204 -0.07325,1.69917 -0.127602,2.547 -0.005,0.0977 -0.0099,0.1955 -0.01481,0.29325 -0.06849,1.36759 1.42201,1.49328 1.490499,0.1257 v 0 c 0.0043,-0.0861 0.0086,-0.17228 0.01282,-0.25842 0.05642,-0.88185 0.133815,-1.76306 0.132058,-2.64925 0.02303,-1.00043 0.05879,-1.99944 0.199172,-2.98622 0.123404,-1.09851 0.190663,-2.20413 0.284568,-3.30719 0.13442,-1.43913 0.297943,-2.87394 0.536809,-4.29107 0.394901,-2.40389 0.694603,-4.855 1.370506,-7.16073 0.715763,-2.21944 1.571512,-4.3534 2.29689,-6.56757 0.546727,-1.49988 1.121134,-2.98169 1.681826,-4.4727 0.51292,-1.19802 -0.79276,-2.13927 -1.305679,-0.94126 z" />
            <path
               style="fill:#000000;stroke-width:0.340288"
               id="path1716"
               d="m 98.281476,137.98777 c 0.01969,0.22899 0.03114,0.45943 0.05911,0.68696 0.07592,0.61775 0.221689,1.38131 0.325934,1.98098 0.224404,1.29089 0.432216,2.5863 0.649573,3.87922 0.401598,2.36025 0.825827,4.71755 1.331787,7.04426 0.35404,1.66878 0.75827,3.31834 1.14852,4.97345 0.39884,1.56957 0.80201,3.1366 1.2478,4.68483 0.28499,0.98486 0.54829,1.97681 0.69735,3.01229 0.15241,1.13477 0.33841,2.26133 0.49173,3.39581 0.0663,0.46876 0.0969,0.94419 0.15816,1.41377 0.18146,1.3501 1.65289,1.01709 1.47143,-0.333 v 0 c -0.0662,-0.46902 -0.0852,-0.94824 -0.15847,-1.41611 -0.15497,-1.14273 -0.34119,-2.27783 -0.49525,-3.42085 -0.16841,-1.14286 -0.44736,-2.24354 -0.76582,-3.33038 -0.43536,-1.51142 -0.82846,-3.04144 -1.21865,-4.5734 -0.38713,-1.6419 -0.78862,-3.27802 -1.13947,-4.9336 -0.49939,-2.28836 -0.91342,-4.60871 -1.3098,-6.93019 -0.0754,-0.44818 -0.15072,-0.89635 -0.22607,-1.34453 -0.0721,-0.4434 -0.14238,-0.88735 -0.21639,-1.33022 -0.16743,-1.00185 -0.37086,-1.99763 -0.509736,-3.00728 -0.02062,-0.14973 -0.03207,-0.30135 -0.0481,-0.45201 0,-1.37048 -1.493643,-1.37048 -1.493643,0 z" />
            <path
               style="fill:#000000;stroke-width:0.340288"
               id="path1720"
               d="m 111.80333,35.906707 c 0.0802,0.12913 0.15301,0.266547 0.24051,0.387406 0.47408,0.654819 1.09674,1.404258 1.60116,1.995201 1.06587,1.248731 2.17122,2.429136 3.2896,3.596948 1.45955,1.509515 2.92772,3.008771 4.46388,4.386394 1.30225,1.167856 1.95861,1.684669 3.30658,2.796233 3.29657,2.653666 6.59609,5.301881 9.93958,7.855156 2.97164,2.310896 6.11289,4.214401 9.18411,6.285078 0.36227,0.240234 0.72534,0.478446 1.08679,0.720707 1.3917,0.932739 2.58764,1.905131 3.84321,3.111978 0.67814,0.661001 1.347,1.34541 2.05095,1.960713 0.38862,0.335627 0.79058,0.641139 1.17845,0.980491 0.87577,0.766025 1.71064,-0.841099 0.83487,-1.607128 v 0 c -0.38897,-0.340142 -0.79292,-0.644321 -1.18094,-0.982672 -0.68661,-0.595298 -1.33369,-1.268954 -1.99487,-1.909395 -1.32245,-1.268566 -2.58736,-2.29822 -4.05197,-3.279837 -0.35848,-0.240271 -0.71857,-0.476489 -1.07786,-0.714735 -3.04801,-2.054791 -6.16554,-3.94361 -9.11521,-6.235589 -3.32895,-2.541862 -6.61378,-5.179007 -9.89612,-7.820664 -1.31105,-1.08064 -1.97212,-1.601725 -3.23755,-2.735755 -1.5137,-1.35652 -2.95968,-2.834191 -4.39764,-4.321105 -1.09152,-1.139125 -2.17,-2.290859 -3.21064,-3.508448 -0.38116,-0.445958 -1.06821,-1.270365 -1.45669,-1.795047 -0.0673,-0.09091 -0.12318,-0.194975 -0.18477,-0.292465 -0.61389,-1.115207 -1.82931,0.01128 -1.21543,1.126535 z" />
            <path
               style="fill:#000000;stroke-width:0.340288"
               id="path1724"
               d="m 152.53843,70.58496 c -1.66619,3.12957 -3.29629,6.288603 -4.83788,9.524075 -1.2867,2.822061 -2.54555,5.668861 -3.7102,8.579419 -0.52331,1.29563 -1.04236,2.59411 -1.59626,3.868317 -0.54529,1.240412 -1.23979,2.356422 -1.91579,3.478906 -0.48872,0.819622 -1.04953,1.558723 -1.60505,2.300696 -0.26652,0.331173 -0.13541,0.163735 -0.39342,0.502238 -0.74195,0.975343 0.32104,2.336919 1.06299,1.361569 v 0 c 0.24175,-0.318491 0.10839,-0.14657 0.40189,-0.513458 0.59266,-0.792036 1.18941,-1.582749 1.71059,-2.457788 0.72183,-1.199084 1.46029,-2.393538 2.04001,-3.720568 0.56161,-1.294092 1.09014,-2.611193 1.62073,-3.927019 1.14685,-2.868053 2.38848,-5.671939 3.65501,-8.453233 1.53522,-3.223359 3.16101,-6.36846 4.81971,-9.486882 0.57561,-1.149071 -0.67673,-2.205342 -1.25233,-1.056272 z" />
            <path
               style="fill:#000000;stroke-width:0.340288"
               id="path1726"
               d="m 136.41851,103.82658 c -0.54024,1.59095 -1.02431,3.21222 -1.49781,4.8381 -0.6792,2.32607 -1.45085,4.6039 -2.27997,6.8459 -0.79174,2.04022 -1.52389,4.11574 -2.1927,6.2283 -0.61955,1.96588 -1.24452,3.92904 -1.91389,5.86735 -0.58268,1.60475 -1.28885,3.12748 -1.99154,4.64707 -0.29829,0.59327 -0.58189,1.1991 -0.88499,1.78826 -0.58573,1.14042 0.65718,2.21528 1.2429,1.07486 v 0 c 0.31553,-0.61524 0.61309,-1.24582 0.92287,-1.86592 0.73319,-1.58563 1.46855,-3.17559 2.07384,-4.85179 0.67565,-1.95699 1.30705,-3.93871 1.93245,-5.92348 0.65769,-2.07838 1.37897,-4.11951 2.15783,-6.12656 0.84679,-2.29257 1.63661,-4.62064 2.33044,-6.99894 0.46999,-1.61435 0.95143,-3.22351 1.48739,-4.80334 0.39224,-1.27246 -0.99456,-1.99227 -1.38682,-0.71981 z" />
            <path
               style="fill:#000000;stroke-width:0.340288"
               id="path1728"
               d="m 123.73273,138.07797 c -0.18555,1.51028 -0.3065,3.03309 -0.4586,4.54977 -0.21953,1.97808 -0.3733,3.97063 -0.63456,5.94051 -0.16089,1.20094 -0.30393,2.40528 -0.48957,3.60042 -0.17263,1.20308 -0.40809,2.38658 -0.65818,3.5656 -0.28055,1.29339 -0.57115,2.58379 -0.91598,3.85104 -0.29684,1.09118 -0.58577,2.18646 -0.90053,3.2692 -0.27439,0.89656 -0.53648,1.79879 -0.75492,2.72107 -0.10522,0.45365 -0.22345,0.90064 -0.34008,1.34915 -0.0541,0.24867 -0.03,0.12307 -0.0723,0.3768 -0.21226,1.34251 1.2509,1.73206 1.46317,0.38953 v 0 c 0.013,-0.0961 0.005,-0.0457 0.0254,-0.15085 0.1187,-0.465 0.24404,-0.92675 0.35181,-1.39662 0.20819,-0.8839 0.46301,-1.74641 0.72459,-2.60579 0.31785,-1.09613 0.61173,-2.20388 0.91158,-3.30848 0.35511,-1.31062 0.65854,-2.6432 0.94731,-3.98077 0.25928,-1.22259 0.50268,-2.45013 0.68234,-3.69744 0.18801,-1.21361 0.33488,-2.43606 0.4975,-3.65562 0.26238,-1.99611 0.42341,-4.01331 0.64352,-6.01766 0.15399,-1.5358 0.27716,-3.0773 0.46367,-4.60701 0.10511,-1.36368 -1.38114,-1.55653 -1.48623,-0.19285 z" />
            <path
               style="fill:#000000;stroke-width:0.340288"
               id="path1730"
               d="m 125.0074,137.84907 c 0.42252,1.66736 0.7255,3.38024 1.02083,5.0914 0.21534,1.3965 0.42112,2.79824 0.54258,4.21467 0.0759,0.88557 0.0901,1.28518 0.13767,2.17452 0.0921,1.9634 0.19988,3.92392 0.37805,5.87747 0.18927,1.47052 0.41277,2.93749 0.68101,4.38774 0.23834,1.27043 0.53146,2.5207 0.84106,3.7644 0.26737,1.09013 0.5364,2.17893 0.8285,3.25856 0.17887,0.66675 0.34546,1.33848 0.53175,2.00189 0.0579,0.19141 0.11076,0.38511 0.16792,0.57687 0.38233,1.27754 1.77468,0.57593 1.39235,-0.70162 v 0 c -0.0539,-0.1789 -0.10218,-0.36033 -0.1569,-0.53879 -0.18428,-0.65625 -0.34842,-1.32106 -0.52583,-1.98046 -0.28803,-1.06432 -0.55311,-2.13773 -0.81654,-3.21252 -0.29825,-1.1966 -0.5805,-2.39949 -0.81013,-3.62187 -0.25597,-1.37556 -0.46506,-2.76816 -0.6499,-4.16214 -0.17556,-1.9225 -0.28027,-3.85203 -0.3713,-5.78426 -0.0507,-0.93934 -0.0651,-1.34965 -0.14628,-2.28708 -0.12768,-1.47564 -0.3409,-2.9364 -0.56651,-4.39119 -0.31304,-1.81157 -0.63276,-3.62675 -1.09153,-5.38741 -0.39224,-1.27246 -1.77906,-0.55265 -1.3868,0.71982 z" />
            <path
               style="fill:#000000;stroke-width:0.340288"
               id="path1732"
               d="m 137.56065,103.56638 c 0.95267,3.05822 2.06933,6.02472 3.15547,9.00543 0.25987,0.71463 0.51823,1.43016 0.77957,2.14386 0.60007,1.63883 0.93673,2.5663 1.58003,4.17422 0.70472,1.76145 1.46858,3.4771 2.23638,5.1928 0.82115,1.92619 1.78273,3.73992 2.68794,5.59858 0.40816,0.82522 0.78587,1.67042 1.12261,2.5479 0.24025,0.68329 0.47951,1.36663 0.73066,2.04366 0.16458,0.4638 0.30835,0.94104 0.41839,1.43144 0.29889,1.31447 1.73147,0.76598 1.43259,-0.54847 v 0 c -0.13538,-0.58967 -0.304,-1.16627 -0.50516,-1.72365 -0.25413,-0.68496 -0.49532,-1.37681 -0.73965,-2.06745 -0.35967,-0.93583 -0.76171,-1.83866 -1.19694,-2.71911 -0.89569,-1.83774 -1.84637,-3.63161 -2.65881,-5.53624 -0.75309,-1.68258 -1.50292,-3.36476 -2.19433,-5.0921 -0.63663,-1.59047 -0.96813,-2.50432 -1.56289,-4.12862 -0.26151,-0.71418 -0.52005,-1.4302 -0.78007,-2.14531 -1.06075,-2.91094 -2.14807,-5.80882 -3.0888,-8.78984 -0.33398,-1.30015 -1.75098,-0.68725 -1.41699,0.6129 z" />
            <path
               style="fill:#000000;stroke-width:0.340288"
               id="path1734"
               d="m 149.38161,137.81287 c -0.78324,2.68638 -1.28175,5.48506 -1.73651,8.28938 -0.46073,2.90329 -0.75234,5.8442 -1.10418,8.77109 -0.20142,1.62451 -0.37121,3.25478 -0.51881,4.88886 -0.13009,1.37045 -0.2132,2.74707 -0.33775,4.11834 -0.0986,0.94161 -0.2037,1.88074 -0.32697,2.81734 -0.0805,0.47411 -0.14472,0.95203 -0.20041,1.43195 -0.15652,1.35535 1.32063,1.64258 1.47715,0.28723 v 0 c 0.0536,-0.46703 0.11849,-0.93134 0.19559,-1.39292 0.12759,-0.96971 0.23644,-1.94212 0.33805,-2.91708 0.12424,-1.37163 0.20842,-2.74843 0.33783,-4.11929 0.14533,-1.60971 0.31262,-3.21565 0.51113,-4.81589 0.34741,-2.89343 0.63604,-5.80054 1.09006,-8.67088 0.44224,-2.73223 0.92719,-5.45878 1.69182,-8.07524 0.33398,-1.30015 -1.08301,-1.91305 -1.417,-0.61289 z" />
            <path
               style="fill:#000000;stroke-width:0.340288"
               id="path1738"
               d="m 150.89437,136.76995 c 0.83002,2.49106 1.49619,5.06348 2.15856,7.6352 0.91607,3.45115 1.71276,6.95129 2.50005,10.45449 0.48172,2.06189 0.92124,4.14048 1.32667,6.22974 0.26641,1.3203 0.42979,2.67027 0.60635,4.01438 0.10625,0.91917 0.18201,1.84386 0.30282,2.76009 0.17952,1.35054 1.65143,1.02109 1.47191,-0.32945 v 0 c -0.12272,-0.91452 -0.19221,-1.83935 -0.30234,-2.75648 -0.18329,-1.39366 -0.35378,-2.79307 -0.63035,-4.16199 -0.41024,-2.11232 -0.85403,-4.21415 -1.34116,-6.29889 -0.79269,-3.52727 -1.5952,-7.05135 -2.51734,-10.5263 -0.67759,-2.63025 -1.3602,-5.2608 -2.21027,-7.80794 -0.42895,-1.25237 -1.79385,-0.4652 -1.3649,0.78715 z" />
            <path
               style="fill:#000000;stroke-width:0.340288"
               id="path1742"
               d="m 155.72214,71.727384 c 0.0799,0.07006 0.16199,0.136339 0.23989,0.210188 0.44957,0.426186 0.87211,0.910539 1.29745,1.374744 1.50903,1.64689 -0.008,7.75e-4 1.71308,1.864242 2.26201,2.463573 4.64396,4.730747 7.0749,6.903188 2.30436,2.0163 4.6352,3.981389 6.96639,5.944963 1.93585,1.582932 3.73269,3.415799 5.4972,5.298908 1.60261,1.730669 3.23704,3.408536 4.88658,5.062901 0.93904,0.926826 1.88762,1.835832 2.86123,2.700312 0.37673,0.30524 0.7256,0.66106 1.08129,1.00471 0.15988,0.14101 0.27043,0.34195 0.40742,0.5162 0.76883,0.93967 1.79294,-0.47119 1.02411,-1.41086 v 0 c -0.18572,-0.17989 -0.31699,-0.51702 -0.53953,-0.65993 -0.37163,-0.35902 -0.73681,-0.729706 -1.12983,-1.049664 -0.94982,-0.84332 -1.87505,-1.730337 -2.79128,-2.634277 -1.63764,-1.642394 -3.26033,-3.308031 -4.85126,-5.026361 -1.8079,-1.929064 -3.64996,-3.804982 -5.63269,-5.427627 -2.3198,-1.953963 -4.63925,-3.909491 -6.93254,-5.915587 -2.39328,-2.138046 -4.73812,-4.369846 -6.96492,-6.794876 -1.10246,-1.193935 -2.17631,-2.444457 -3.33933,-3.538318 -0.85943,-0.796575 -1.72759,0.780566 -0.86816,1.577144 z" />
            <path
               style="fill:#000000;stroke-width:0.340288"
               id="path1744"
               d="m 186.7538,104.11538 c -0.8638,3.2412 -1.90579,6.3938 -2.89261,9.57318 -1.22475,4.06918 -2.49009,8.11741 -3.7335,12.17694 -0.69703,2.31949 -1.37906,4.64749 -2.11149,6.94875 -0.25653,0.84866 -0.53768,1.68393 -0.82512,2.5155 -0.43222,1.25047 0.93062,2.04364 1.36285,0.79317 v 0 c 0.29356,-0.8493 0.58061,-1.70244 0.84288,-2.56905 0.73454,-2.30939 1.41997,-4.64482 2.11891,-6.97254 1.24253,-4.05682 2.50712,-8.10227 3.73098,-12.16874 1.01222,-3.26168 2.08668,-6.49429 2.95615,-9.82713 0.25615,-1.32957 -1.19289,-1.79964 -1.44905,-0.47008 z" />
            <path
               style="fill:#000000;stroke-width:0.340288"
               id="path1746"
               d="m 176.0143,137.67369 c -0.16977,1.47918 -0.31272,2.96496 -0.46214,4.44837 -0.21699,2.38477 -0.57672,4.74298 -0.96628,7.08894 -0.24579,1.51602 -0.56576,3.00849 -0.8516,4.51187 -0.23655,1.24661 -0.38626,2.51689 -0.56748,3.77815 -0.14494,0.94353 -0.2532,1.8961 -0.39936,2.83917 -0.12594,0.79205 -0.26893,1.57896 -0.40747,2.36742 -0.14079,0.68414 -0.23055,1.3825 -0.33482,2.07678 -0.1032,0.59715 -0.19156,1.19866 -0.28429,1.79875 -0.10838,0.49704 -0.15949,1.01098 -0.25637,1.51106 -0.0376,0.19566 -0.0798,0.39238 -0.13506,0.58124 -0.008,0.0284 -0.0419,0.10871 -0.0309,0.0817 0.0207,-0.0513 0.0403,-0.10314 0.0604,-0.15481 -0.67833,1.05046 0.46654,2.29525 1.14486,1.24479 v 0 c 0.0545,-0.1049 0.11585,-0.20423 0.16357,-0.31451 0.12895,-0.29802 0.16927,-0.65626 0.24794,-0.9774 0.0979,-0.52819 0.16127,-1.06611 0.27013,-1.59134 0.0932,-0.60347 0.18197,-1.20829 0.28582,-1.80878 0.10128,-0.67421 0.18776,-1.3525 0.32503,-2.01672 0.14145,-0.80509 0.28717,-1.60873 0.41576,-2.41751 0.14642,-0.95188 0.25796,-1.91239 0.40316,-2.86472 0.17589,-1.22476 0.32104,-2.45833 0.54933,-3.66925 0.28915,-1.52204 0.61325,-3.03294 0.86155,-4.56787 0.39778,-2.39799 0.76508,-4.80837 0.98718,-7.24584 0.14366,-1.42672 0.28581,-2.8545 0.43917,-4.27909 0.22911,-1.33785 -1.22897,-1.75829 -1.45808,-0.42044 z" />
            <path
               style="fill:#000000;stroke-width:0.340288"
               id="path1748"
               d="m 177.36542,137.36806 c 0.36167,1.58536 0.74648,3.16205 1.13411,4.73706 0.58624,2.22886 1.15162,4.46522 1.65619,6.72753 0.52591,2.25965 0.98183,4.54436 1.4418,6.82755 0.44042,2.25177 0.92463,4.48842 1.42261,6.71971 0.40481,1.61757 0.79781,3.23894 1.16115,4.87322 0.15832,0.70071 0.29894,1.40791 0.44318,2.11367 0.27072,1.3247 1.71446,0.82788 1.44373,-0.4968 v 0 c -0.14702,-0.7193 -0.29047,-1.44001 -0.45181,-2.15416 -0.36356,-1.63485 -0.75558,-3.25736 -1.16156,-4.87508 -0.4944,-2.21503 -0.97509,-4.43538 -1.41222,-6.67077 -0.46328,-2.29946 -0.92266,-4.60041 -1.45214,-6.87625 -0.50853,-2.2792 -1.07693,-4.53289 -1.66809,-6.77825 -0.38957,-1.58281 -0.77573,-3.16741 -1.13996,-4.76033 -0.33399,-1.30015 -1.75098,-0.68724 -1.41699,0.6129 z" />
            <path
               style="fill:#000000;stroke-width:0.340288"
               id="path1750"
               d="m 189.09807,102.71234 c 0.0335,0.10454 0.0634,0.21118 0.10071,0.31363 0.31132,0.85723 0.65965,1.6956 1.00295,2.53135 0.184,0.44796 0.36974,0.89473 0.5546,1.34209 0.21944,0.53532 0.43888,1.07065 0.65833,1.60599 1.42582,3.43409 2.83021,6.88223 4.19714,10.35645 0.19289,0.49151 0.38435,0.98401 0.57868,1.47457 0.56507,1.42651 0.57122,1.40087 1.11724,2.83449 0.5,1.31278 0.96719,2.64523 1.44411,3.9722 0.66507,1.80567 1.23424,3.66668 1.84442,5.5038 0.28777,0.8512 0.57474,1.70332 0.87924,2.54469 0.0647,0.1976 0.0387,0.10681 0.0815,0.27095 0.35514,1.29068 1.76182,0.63896 1.40667,-0.65172 v 0 c -0.0837,-0.29651 -0.0384,-0.14874 -0.13624,-0.4431 -0.29772,-0.82264 -0.57822,-1.65583 -0.85959,-2.48809 -0.61621,-1.85438 -1.19054,-3.73318 -1.86237,-5.55571 -0.48334,-1.3448 -0.95713,-2.69493 -1.46395,-4.0253 -0.55427,-1.45488 -0.55124,-1.40569 -1.12007,-2.84169 -0.19457,-0.49119 -0.38626,-0.98428 -0.57939,-1.47642 -1.37083,-3.48382 -2.77892,-6.9417 -4.20874,-10.38532 -0.75669,-1.84588 -1.54604,-3.67443 -2.23672,-5.56339 -0.37085,-1.28323 -1.76939,-0.6027 -1.39854,0.68053 z" />
            <path
               style="fill:#000000;stroke-width:0.340288"
               id="path1752"
               d="m 201.66479,138.52194 c -0.33228,1.9494 -0.68669,3.89159 -1.05616,5.82983 -0.35805,1.94355 -0.77123,3.8688 -1.14946,5.80562 -0.35883,1.90014 -0.17973,0.97041 -0.53652,2.78945 -0.45645,2.20322 -0.7961,4.44093 -1.10621,6.68508 -0.20275,1.43068 -0.29981,2.87884 -0.34261,4.33069 -0.0213,0.88767 -0.0189,1.77585 -0.0165,2.66381 0.002,0.55767 0.003,1.11535 0.005,1.67302 -0.007,0.26703 0.014,0.53582 -0.009,0.80166 -0.0884,1.36566 1.39994,1.52797 1.48839,0.1623 v 0 c 0.0177,-0.32243 0.0181,-0.64426 0.0148,-0.96753 -9e-4,-0.55867 -0.002,-1.11733 -0.005,-1.67599 -0.002,-0.86128 -0.005,-1.72277 0.0155,-2.58375 0.0395,-1.36185 0.12987,-2.72019 0.32024,-4.06214 0.30377,-2.19852 0.63574,-4.39091 1.08353,-6.54916 0.35809,-1.82613 0.17991,-0.9005 0.53404,-2.777 0.37983,-1.94518 0.79472,-3.87878 1.15437,-5.8307 0.36516,-1.91573 0.71871,-3.83451 1.04239,-5.76274 0.29014,-1.31775 -1.14602,-1.8502 -1.43618,-0.53245 z" />
            <path
               style="fill:#000000;stroke-width:0.340288"
               id="path1754"
               d="m 203.65601,138.10462 c 0.29131,1.47463 0.74349,2.88459 1.17375,4.29721 0.52792,1.7333 0.33975,1.12011 0.89503,2.89259 0.75929,2.55126 1.52622,5.09952 2.24185,7.67211 0.54754,1.93355 1.00155,3.9058 1.38531,5.90369 0.30329,1.72371 0.55611,3.46199 0.793,5.20293 0.11416,0.94776 0.20502,1.89969 0.33524,2.84418 0.0898,0.56527 0.12508,1.14101 0.21649,1.70551 0.219,1.3407 1.68017,0.93882 1.46117,-0.40188 v 0 c -0.0899,-0.54401 -0.1155,-1.10228 -0.20756,-1.64644 -0.13118,-0.94235 -0.21762,-1.8933 -0.33448,-2.8386 -0.24322,-1.78518 -0.50216,-3.56781 -0.81466,-5.33497 -0.39691,-2.06148 -0.86445,-4.09726 -1.42962,-6.0926 -0.72262,-2.59655 -1.49607,-5.16899 -2.26306,-7.74384 -0.55694,-1.77753 -0.35771,-1.12918 -0.88919,-2.87361 -0.40168,-1.31842 -0.82546,-2.63332 -1.1052,-4.00672 -0.22912,-1.33786 -1.68719,-0.9174 -1.45807,0.42044 z" />
            <ellipse
               style="fill:#000000;stroke-width:0.340288"
               id="path1963"
               cx="203.07906"
               cy="135.95262"
               rx="2.0350201"
               ry="1.7316474" />
            <ellipse
               style="fill:#ff0000;stroke-width:0.340288"
               id="path1967"
               cx="203.13513"
               cy="135.95262"
               rx="2.0350871"
               ry="2.7618737" />
          </g>
        </g>
        <text
           xml:space="preserve"
           style="font-size:7.05556px;fill:#ff0000;stroke-width:0.264583"
           x="217.57162"
           y="194.72174"
           id="text2075"><tspan
             sodipodi:role="line"
             id="tspan2073"
             style="stroke-width:0.264583"
             x="217.57162"
             y="194.72174">Me</tspan></text>
      </g>
    </g>
    <text
       xml:space="preserve"
       style="font-size:7.05556px;fill:#ff0000;stroke-width:0.465"
       x="118.33794"
       y="23.547916"
       id="text14184"><tspan
         sodipodi:role="line"
         id="tspan14182"
         style="stroke-width:0.465" /></text>
  </g>
</svg>
